<svg width="18" height="18" viewBox="0 0 18 18" fill="none" xmlns="http://www.w3.org/2000/svg">
<path d="M16.5 3.885L7.9425 12.45L4.7625 9.27L5.82 8.2125L7.9425 10.335L15.4425 2.835L16.5 3.885ZM14.8425 7.665C14.94 8.0925 15 8.5425 15 9C15 12.315 12.315 15 9 15C5.685 15 3 12.315 3 9C3 5.685 5.685 3 9 3C10.185 3 11.28 3.345 12.21 3.9375L13.29 2.8575C12.075 2.0025 10.5975 1.5 9 1.5C4.86 1.5 1.5 4.86 1.5 9C1.5 13.14 4.86 16.5 9 16.5C13.14 16.5 16.5 13.14 16.5 9C16.5 8.1075 16.335 7.2525 16.05 6.4575L14.8425 7.665Z" fill="#2F211A"/>
</svg>
